<svg width="24" height="24" viewBox="0 0 24 24" fill="none" xmlns="http://www.w3.org/2000/svg">
<path d="M2.39999 7.19999C2.39999 5.8745 3.47451 4.79999 4.79999 4.79999H19.2C20.5255 4.79999 21.6 5.8745 21.6 7.19999V9.23544C21.2944 8.72814 20.8844 8.29072 20.4 7.9528V7.19999C20.4 6.53725 19.8628 5.99999 19.2 5.99999H4.79999C4.13726 5.99999 3.59999 6.53725 3.59999 7.19999V15.6C3.59999 16.2627 4.13726 16.8 4.79999 16.8H12.0949C12.0338 17.0381 12 17.2874 12 17.544V17.928C12 17.952 12.0002 17.976 12.0006 18H4.79999C3.47451 18 2.39999 16.9255 2.39999 15.6V7.19999ZM18 14.4C19.6568 14.4 21 13.0568 21 11.4C21 9.74314 19.6568 8.39999 18 8.39999C16.3432 8.39999 15 9.74314 15 11.4C15 13.0568 16.3432 14.4 18 14.4ZM13.7207 16.2347C14.034 15.8822 14.502 15.6 15.06 15.6H20.94C21.498 15.6 21.966 15.8822 22.2793 16.2347C22.5904 16.5845 22.8 17.0581 22.8 17.544V17.928C22.8 19.8893 20.8402 21.6 18 21.6C15.1598 21.6 13.2 19.8893 13.2 17.928V17.544C13.2 17.0581 13.4096 16.5845 13.7207 16.2347Z" fill="#101828"/>
</svg>
